<?xml version="1.0" encoding="utf-8"?>
<!-- Generator: Adobe Illustrator 23.0.3, SVG Export Plug-In . SVG Version: 6.00 Build 0)  -->
<svg version="1.1" id="Layer_1" xmlns="http://www.w3.org/2000/svg" xmlns:xlink="http://www.w3.org/1999/xlink" x="0px" y="0px"
	 viewBox="0 0 333.4 333.4" style="enable-background:new 0 0 333.4 333.4;" xml:space="preserve">
<style type="text/css">
	.st0{fill:none;stroke:#486EB4;stroke-width:15;stroke-miterlimit:10;}
	.st1{fill:none;stroke:#B54185;stroke-width:15;stroke-miterlimit:10;}
	.st2{fill:none;stroke:#1AAFDE;stroke-width:15;stroke-miterlimit:10;}
	.st3{fill:none;stroke:#157CBA;stroke-width:15;stroke-miterlimit:10;}
	.st4{fill:none;stroke:#2DAF4B;stroke-width:15;stroke-miterlimit:10;}
	.st5{fill:none;stroke:#EF4D44;stroke-width:15;stroke-miterlimit:10;}
	.st6{fill:none;stroke:#EB4943;stroke-width:15;stroke-miterlimit:10;}
	.st7{fill:none;stroke:#20B6E9;stroke-width:15;stroke-miterlimit:10;}
	.st8{fill:none;stroke:#F4E028;stroke-width:15;stroke-miterlimit:10;}
	.st9{fill:none;stroke:#33445A;stroke-width:15;stroke-miterlimit:10;}
	.st10{fill:none;stroke:#2790CF;stroke-width:15;stroke-miterlimit:10;}
	.st11{fill:none;stroke:#39AAE0;stroke-width:15;stroke-miterlimit:10;}
	.st12{fill:#FFFFFF;}
	.st13{fill:#486EB4;}
	.st14{fill:#B54185;}
	.st15{fill:#2DAF4B;}
	.st16{fill:#EB4943;}
	.st17{fill:#157CBA;}
	.st18{fill:#1AAFDE;}
	.st19{fill:#EF4D44;}
	.st20{fill:#33445A;}
	.st21{fill:#20B6E9;}
	.st22{fill:#F4E028;}
	.st23{fill:#2790CF;}
	.st24{fill:#39AAE0;}
	.st25{fill:none;stroke:url(#SVGID_1_);stroke-width:15;stroke-miterlimit:10;}
	.st26{fill:none;stroke:url(#SVGID_2_);stroke-width:15;stroke-miterlimit:10;}
	.st27{fill:none;stroke:url(#SVGID_3_);stroke-width:15;stroke-miterlimit:10;}
	.st28{fill:none;stroke:url(#SVGID_4_);stroke-width:15;stroke-miterlimit:10;}
	.st29{fill:none;stroke:url(#SVGID_5_);stroke-width:15;stroke-miterlimit:10;}
	.st30{fill:none;stroke:url(#SVGID_6_);stroke-width:15;stroke-miterlimit:10;}
	.st31{fill:none;stroke:url(#SVGID_7_);stroke-width:15;stroke-miterlimit:10;}
	.st32{fill:none;stroke:url(#SVGID_8_);stroke-width:15;stroke-miterlimit:10;}
	.st33{fill:none;stroke:url(#SVGID_9_);stroke-width:15;stroke-miterlimit:10;}
	.st34{fill:none;stroke:url(#SVGID_10_);stroke-width:15;stroke-miterlimit:10;}
	.st35{fill:none;stroke:url(#SVGID_11_);stroke-width:15;stroke-miterlimit:10;}
	.st36{fill:none;stroke:url(#SVGID_12_);stroke-width:15;stroke-miterlimit:10;}
	.st37{fill:url(#SVGID_13_);}
	.st38{fill:url(#SVGID_14_);}
	.st39{fill:url(#XMLID_14_);}
	.st40{fill:url(#SVGID_15_);}
	.st41{fill:url(#SVGID_16_);}
	.st42{fill:url(#SVGID_17_);}
	.st43{fill:url(#SVGID_18_);}
	.st44{fill:url(#SVGID_19_);}
	.st45{fill:url(#SVGID_20_);}
	.st46{fill:url(#SVGID_21_);}
	.st47{fill:url(#SVGID_22_);}
	.st48{fill:url(#SVGID_23_);}
	.st49{fill:url(#SVGID_24_);}
	.st50{fill:url(#SVGID_25_);}
	.st51{fill:url(#SVGID_26_);}
	.st52{fill:url(#SVGID_27_);}
	.st53{fill:url(#SVGID_28_);}
	.st54{fill:url(#SVGID_29_);}
	.st55{fill:url(#SVGID_30_);}
	.st56{fill:url(#SVGID_31_);}
	.st57{fill:url(#SVGID_32_);}
	.st58{fill:url(#SVGID_33_);}
	.st59{fill:url(#SVGID_34_);}
	.st60{fill:url(#SVGID_35_);}
</style>
<path class="st1" d="M15.1,85.5c0,0,2.7-70.7,80.4-68.4s208.6-0.8,221.7,76.6c13.1,77.4-84.3,222.8-162.9,222.6
	C86.5,316.1,10.9,190.4,15.1,85.5z"/>
<path class="st14" d="M166.7,115c-23,0-41.6,18.7-41.6,41.6c0,23,18.7,41.6,41.6,41.6c23,0,41.6-18.7,41.6-41.6
	C208.4,133.6,189.7,115,166.7,115L166.7,115z M166.7,183.7c-14.9,0-27-12.1-27-27c0-14.9,12.1-27,27-27s27,12.1,27,27
	C193.7,171.6,181.7,183.7,166.7,183.7z M200.1,76c-14.9-0.7-51.9-0.7-66.9,0c-13.1,0.6-24.7,3.8-34.1,13.1
	c-15.6,15.6-13.6,36.6-13.6,67.5c0,31.6-1.8,52.1,13.6,67.5c15.7,15.7,37,13.6,67.5,13.6c31.3,0,42.1,0,53.1-4.3
	c15-5.8,26.4-19.3,27.5-43.4c0.7-14.9,0.7-51.9,0-66.9C246,94.7,230.7,77.5,200.1,76L200.1,76z M223.8,213.8
	c-10.2,10.2-24.4,9.3-57.3,9.3c-33.8,0-47.4,0.5-57.3-9.4c-11.4-11.3-9.3-29.6-9.3-57.2c0-37.4-3.8-64.3,33.7-66.2
	c8.6-0.3,11.2-0.4,32.8-0.4l0.3,0.2c36,0,64.3-3.8,66,33.7c0.4,8.6,0.5,11.1,0.5,32.8C233.2,190.1,233.8,203.7,223.8,213.8
	L223.8,213.8z M210,103.6c5.4,0,9.7,4.4,9.7,9.7s-4.4,9.7-9.7,9.7c-5.4,0-9.7-4.4-9.7-9.7S204.6,103.6,210,103.6z"/>
</svg>
