<?xml version="1.0" encoding="utf-8"?>
<!-- Generator: Adobe Illustrator 23.0.3, SVG Export Plug-In . SVG Version: 6.00 Build 0)  -->
<svg version="1.1" id="Layer_1" xmlns="http://www.w3.org/2000/svg" xmlns:xlink="http://www.w3.org/1999/xlink" x="0px" y="0px"
	 viewBox="0 0 80 80" style="enable-background:new 0 0 80 80;" xml:space="preserve">
<style type="text/css">
	.st0{fill:url(#SVGID_1_);}
	.st1{fill:url(#SVGID_2_);}
	.st2{fill:url(#SVGID_3_);}
	.st3{fill:url(#SVGID_4_);}
	.st4{fill:url(#SVGID_5_);}
	.st5{fill:url(#SVGID_6_);}
	.st6{fill:url(#SVGID_7_);}
	.st7{fill:url(#SVGID_8_);}
	.st8{fill:url(#SVGID_9_);}
	.st9{fill:url(#SVGID_10_);}
	.st10{fill:url(#SVGID_11_);}
	.st11{fill:url(#SVGID_12_);}
	.st12{fill:url(#SVGID_13_);}
	.st13{fill:url(#SVGID_14_);}
	.st14{fill:url(#SVGID_15_);}
	.st15{fill:url(#SVGID_16_);}
	.st16{fill:url(#SVGID_17_);}
	.st17{fill:url(#SVGID_18_);}
	.st18{fill:url(#SVGID_19_);}
	.st19{fill:url(#SVGID_20_);}
	.st20{fill:url(#SVGID_21_);}
	.st21{fill:url(#SVGID_22_);}
	.st22{fill:url(#SVGID_23_);}
	.st23{fill:url(#SVGID_24_);}
	.st24{fill:url(#SVGID_25_);}
	.st25{fill:url(#SVGID_26_);}
	.st26{fill:url(#SVGID_27_);}
	.st27{fill:url(#SVGID_28_);}
	.st28{fill:url(#SVGID_29_);}
	.st29{fill:url(#SVGID_30_);}
	.st30{fill:url(#SVGID_31_);}
	.st31{fill:url(#SVGID_32_);}
	.st32{fill:url(#SVGID_33_);}
	.st33{fill:url(#SVGID_34_);}
	.st34{fill:url(#SVGID_35_);}
	.st35{fill:url(#SVGID_36_);}
	.st36{fill:url(#SVGID_37_);}
	.st37{fill:url(#SVGID_38_);}
</style>
<linearGradient id="SVGID_1_" gradientUnits="userSpaceOnUse" x1="11.8661" y1="27.0369" x2="74.6681" y2="63.2957">
	<stop  offset="0" style="stop-color:#2183BF"/>
	<stop  offset="1" style="stop-color:#19086D"/>
</linearGradient>
<path class="st0" d="M52.5,52.1c8-12.6,7-11,7.2-11.3c2.9-4.1,4.5-8.9,4.5-14C64.2,13.4,53.4,2.4,40,2.4c-13.3,0-24.2,11-24.2,24.4
	c0,5,1.6,10,4.6,14.2l7.1,11.1C19.9,53.2,7,56.7,7,64.4c0,2.8,1.8,6.8,10.5,9.9c6.1,2.2,14.1,3.4,22.5,3.4c15.9,0,33-4.5,33-13.2
	C73,56.7,60.2,53.2,52.5,52.1z M24,38.5c0,0,0-0.1-0.1-0.1c-2.5-3.4-3.8-7.5-3.8-11.6c0-11,8.9-20,19.8-20c10.9,0,19.8,9,19.8,20
	c0,4.1-1.3,8.1-3.6,11.4C56,38.5,57.1,36.8,40,63.6L24,38.5z M40,73.2c-17.3,0-28.6-5.1-28.6-8.8c0-2.5,5.8-6.6,18.7-8.2l8.1,12.7
	c0.4,0.6,1.1,1,1.9,1s1.5-0.4,1.9-1l8.1-12.7c12.9,1.6,18.7,5.7,18.7,8.2C68.6,68.1,57.4,73.2,40,73.2z M40,15.8
	c-6.1,0-11,4.9-11,11s4.9,11,11,11s11-4.9,11-11S46.1,15.8,40,15.8z M40,33.4c-3.6,0-6.6-3-6.6-6.6s3-6.6,6.6-6.6
	c3.6,0,6.6,3,6.6,6.6S43.6,33.4,40,33.4z"/>
</svg>
