<?xml version="1.0" encoding="UTF-8" standalone="no"?> <svg id="Layer_1" data-name="Layer 1" xmlns="http://www.w3.org/2000/svg" viewBox="0 0 128 128"><defs><style>.cls-1{fill:#3b4551;}.cls-2{fill:#2b77c0;}</style></defs><title>a</title><path class="cls-1" d="M126.75625,105.72255c-.7146-6.54109-2.28118-19.15593-4.2324-28.03322a46.3451,46.3451,0,0,0-2.44607-7.83273L93.39123,64.03011a10.41057,10.41057,0,0,1-8.38244-12.17518c.38481-2.03392,1.01688-5.57923,1.4292-7.9978a15.62918,15.62918,0,0,0-6.67847-3.65535,38.32505,38.32505,0,0,0-3.98514-.19224L52.60579,39.872c-1.2643,0-2.5286.02751-3.79274.13755h-.02751c-4.20506,1.23662-6.32117,2.8032-7.25569,3.71021.41232,2.41856,1.0719,6.07392,1.45671,8.13518a10.41052,10.41052,0,0,1-8.38261,12.17518l-26.96132,5.854a47.4052,47.4052,0,0,0-2.47342,8.21754c-1.814,8.79476-3.243,21.18968-3.93012,27.6209A3.85752,3.85752,0,0,0,5.08668,110.01H122.90849A3.85606,3.85606,0,0,0,126.75625,105.72255Zm-79.235-5.6616a3.779,3.779,0,1,1,3.76523-3.79274A3.80032,3.80032,0,0,1,47.52124,100.061Zm0-13.74176a3.779,3.779,0,1,1,3.76523-3.79274A3.80032,3.80032,0,0,1,47.52124,86.3192Zm0-13.74176a3.779,3.779,0,1,1,3.76523-3.79274A3.80032,3.80032,0,0,1,47.52124,72.57744ZM64.01134,100.061a3.779,3.779,0,1,1,3.76523-3.79274A3.80032,3.80032,0,0,1,64.01134,100.061Zm0-13.74176a3.779,3.779,0,1,1,3.76523-3.79274A3.80032,3.80032,0,0,1,64.01134,86.3192Zm0-13.74176a3.779,3.779,0,1,1,3.76523-3.79274A3.80032,3.80032,0,0,1,64.01134,72.57744ZM80.50145,100.061a3.779,3.779,0,1,1,3.76523-3.79274A3.80032,3.80032,0,0,1,80.50145,100.061Zm0-13.74176a3.779,3.779,0,1,1,3.76523-3.79274A3.80032,3.80032,0,0,1,80.50145,86.3192Zm0-13.74176a3.779,3.779,0,1,1,3.76523-3.79274A3.80032,3.80032,0,0,1,80.50145,72.57744Z"/><path class="cls-2" d="M5.89505,63.26418,33.30761,57.2894a3.51516,3.51516,0,0,0,2.93354-4.1398c-.63794-3.31584-1.912-10.69935-1.912-10.69935S37.62724,31.45685,62.9121,31.45685c.38263,0,.71393.02483,1.08666.02986.37273-.005.704-.02986,1.08666-.02986,25.28487,0,28.58292,10.99341,28.58292,10.99341s-1.274,7.38351-1.912,10.69935a3.51516,3.51516,0,0,0,2.93354,4.1398l27.41256,5.97478a3.09118,3.09118,0,0,0,3.56276-2.94059c.16825-4.797.18972-15.02367-.6631-17.44442a24.63768,24.63768,0,0,0-12.15605-13.60572A105.26625,105.26625,0,0,0,65.36036,17.99c-.46415,0-.902.03321-1.36159.03925-.45962-.006-.89744-.03925-1.36159-.03925A105.26625,105.26625,0,0,0,15.15145,29.27346,24.63768,24.63768,0,0,0,2.99539,42.87918c-.85282,2.42074-.83135,12.64738-.6631,17.44442A3.09118,3.09118,0,0,0,5.89505,63.26418Z"/></svg>